#define _width 14
#define _height 10
static char _bits[] = {
 0x00,0x00,0x00,0x00,0x00,0x00,0x00,0x00,0xfe,0x07,0x7e,0x04,0x7e,0x1c,0x7e,
 0x1c,0x7e,0x04,0xfe,0x07 };
